<mxfile host="app.diagrams.net" modified="2024-01-22T11:15:47.343Z" agent="Mozilla/5.0 (Windows NT 10.0; Win64; x64) AppleWebKit/537.36 (KHTML, like Gecko) Chrome/120.0.0.0 Safari/537.36" etag="cx35qW5BG3cGV5_HCiX7" version="22.1.21" type="device">
  <diagram id="C5RBs43oDa-KdzZeNtuy" name="Page-1">
    <mxGraphModel dx="1434" dy="1941" grid="1" gridSize="10" guides="1" tooltips="1" connect="1" arrows="1" fold="1" page="1" pageScale="1" pageWidth="827" pageHeight="1169" math="0" shadow="0">
      <root>
        <mxCell id="WIyWlLk6GJQsqaUBKTNV-0" />
        <mxCell id="WIyWlLk6GJQsqaUBKTNV-1" parent="WIyWlLk6GJQsqaUBKTNV-0" />
        <mxCell id="NyG7NcDVjS7f3GW7vUbu-5" value="" style="edgeStyle=orthogonalEdgeStyle;rounded=0;orthogonalLoop=1;jettySize=auto;html=1;" parent="WIyWlLk6GJQsqaUBKTNV-1" source="NyG7NcDVjS7f3GW7vUbu-0" target="NyG7NcDVjS7f3GW7vUbu-4" edge="1">
          <mxGeometry relative="1" as="geometry" />
        </mxCell>
        <mxCell id="NyG7NcDVjS7f3GW7vUbu-0" value="&lt;p class=&quot;MsoNormal&quot;&gt;PktSeq =[PD,SS,ID]&lt;/p&gt;&lt;p class=&quot;MsoNormal&quot;&gt;Pktlist = GetCClinepkts(),id = 0,seqpos=1&lt;/p&gt;" style="rounded=0;whiteSpace=wrap;html=1;" parent="WIyWlLk6GJQsqaUBKTNV-1" vertex="1">
          <mxGeometry x="110" y="110" width="233" height="52" as="geometry" />
        </mxCell>
        <mxCell id="NyG7NcDVjS7f3GW7vUbu-1" value="if pktlist[id] == Pktseq[seqpos]" style="rhombus;whiteSpace=wrap;html=1;" parent="WIyWlLk6GJQsqaUBKTNV-1" vertex="1">
          <mxGeometry x="168" y="301" width="115" height="115" as="geometry" />
        </mxCell>
        <mxCell id="NyG7NcDVjS7f3GW7vUbu-6" style="edgeStyle=orthogonalEdgeStyle;rounded=0;orthogonalLoop=1;jettySize=auto;html=1;exitX=0.5;exitY=1;exitDx=0;exitDy=0;entryX=0.5;entryY=0;entryDx=0;entryDy=0;" parent="WIyWlLk6GJQsqaUBKTNV-1" source="NyG7NcDVjS7f3GW7vUbu-4" target="NyG7NcDVjS7f3GW7vUbu-1" edge="1">
          <mxGeometry relative="1" as="geometry" />
        </mxCell>
        <mxCell id="NyG7NcDVjS7f3GW7vUbu-145" style="edgeStyle=orthogonalEdgeStyle;rounded=0;orthogonalLoop=1;jettySize=auto;html=1;exitX=1;exitY=0.5;exitDx=0;exitDy=0;entryX=0;entryY=0.5;entryDx=0;entryDy=0;" parent="WIyWlLk6GJQsqaUBKTNV-1" source="NyG7NcDVjS7f3GW7vUbu-4" target="NyG7NcDVjS7f3GW7vUbu-144" edge="1">
          <mxGeometry relative="1" as="geometry" />
        </mxCell>
        <mxCell id="NyG7NcDVjS7f3GW7vUbu-4" value="While id &amp;lt; len(Pktlist)" style="rhombus;whiteSpace=wrap;html=1;" parent="WIyWlLk6GJQsqaUBKTNV-1" vertex="1">
          <mxGeometry x="179" y="191" width="93" height="93" as="geometry" />
        </mxCell>
        <mxCell id="NyG7NcDVjS7f3GW7vUbu-135" style="edgeStyle=orthogonalEdgeStyle;rounded=0;orthogonalLoop=1;jettySize=auto;html=1;exitX=0.5;exitY=1;exitDx=0;exitDy=0;entryX=0.5;entryY=0;entryDx=0;entryDy=0;" parent="WIyWlLk6GJQsqaUBKTNV-1" edge="1">
          <mxGeometry relative="1" as="geometry">
            <mxPoint x="225.38" y="461.9999999999998" as="sourcePoint" />
            <mxPoint x="224" y="481.9999999999998" as="targetPoint" />
            <Array as="points">
              <mxPoint x="224" y="462" />
              <mxPoint x="224" y="482" />
            </Array>
          </mxGeometry>
        </mxCell>
        <mxCell id="NyG7NcDVjS7f3GW7vUbu-9" value="Get Response for the Pkt" style="rounded=0;whiteSpace=wrap;html=1;" parent="WIyWlLk6GJQsqaUBKTNV-1" vertex="1">
          <mxGeometry x="158.88" y="432" width="145" height="30" as="geometry" />
        </mxCell>
        <mxCell id="NyG7NcDVjS7f3GW7vUbu-165" style="edgeStyle=orthogonalEdgeStyle;rounded=0;orthogonalLoop=1;jettySize=auto;html=1;exitX=0.5;exitY=1;exitDx=0;exitDy=0;entryX=0.5;entryY=0;entryDx=0;entryDy=0;" parent="WIyWlLk6GJQsqaUBKTNV-1" source="NyG7NcDVjS7f3GW7vUbu-10" target="NyG7NcDVjS7f3GW7vUbu-15" edge="1">
          <mxGeometry relative="1" as="geometry" />
        </mxCell>
        <mxCell id="NyG7NcDVjS7f3GW7vUbu-10" value="if PktSeq[seqpos] ==&#39;ID&#39;" style="rhombus;whiteSpace=wrap;html=1;" parent="WIyWlLk6GJQsqaUBKTNV-1" vertex="1">
          <mxGeometry x="169" y="482" width="110" height="108" as="geometry" />
        </mxCell>
        <mxCell id="NyG7NcDVjS7f3GW7vUbu-138" style="edgeStyle=orthogonalEdgeStyle;rounded=0;orthogonalLoop=1;jettySize=auto;html=1;exitX=1;exitY=0.5;exitDx=0;exitDy=0;" parent="WIyWlLk6GJQsqaUBKTNV-1" source="NyG7NcDVjS7f3GW7vUbu-13" target="NyG7NcDVjS7f3GW7vUbu-14" edge="1">
          <mxGeometry relative="1" as="geometry" />
        </mxCell>
        <mxCell id="NyG7NcDVjS7f3GW7vUbu-13" value="if Pktlist[id][Ext]&amp;nbsp; ==1" style="rhombus;whiteSpace=wrap;html=1;" parent="WIyWlLk6GJQsqaUBKTNV-1" vertex="1">
          <mxGeometry x="292" y="483" width="107" height="108" as="geometry" />
        </mxCell>
        <mxCell id="NyG7NcDVjS7f3GW7vUbu-158" style="edgeStyle=orthogonalEdgeStyle;rounded=0;orthogonalLoop=1;jettySize=auto;html=1;exitX=0.5;exitY=1;exitDx=0;exitDy=0;entryX=1;entryY=0.5;entryDx=0;entryDy=0;" parent="WIyWlLk6GJQsqaUBKTNV-1" source="NyG7NcDVjS7f3GW7vUbu-14" target="NyG7NcDVjS7f3GW7vUbu-141" edge="1">
          <mxGeometry relative="1" as="geometry" />
        </mxCell>
        <mxCell id="NyG7NcDVjS7f3GW7vUbu-14" value="PktSeq.append(ExID)" style="rounded=0;whiteSpace=wrap;html=1;" parent="WIyWlLk6GJQsqaUBKTNV-1" vertex="1">
          <mxGeometry x="427" y="523" width="127" height="29" as="geometry" />
        </mxCell>
        <mxCell id="NyG7NcDVjS7f3GW7vUbu-139" style="edgeStyle=orthogonalEdgeStyle;rounded=0;orthogonalLoop=1;jettySize=auto;html=1;exitX=1;exitY=0.5;exitDx=0;exitDy=0;entryX=0;entryY=0.5;entryDx=0;entryDy=0;" parent="WIyWlLk6GJQsqaUBKTNV-1" source="NyG7NcDVjS7f3GW7vUbu-15" target="NyG7NcDVjS7f3GW7vUbu-16" edge="1">
          <mxGeometry relative="1" as="geometry" />
        </mxCell>
        <mxCell id="2FFM0tHUzr3lRl8sOh0C-1" style="edgeStyle=orthogonalEdgeStyle;rounded=0;orthogonalLoop=1;jettySize=auto;html=1;exitX=0.5;exitY=1;exitDx=0;exitDy=0;entryX=0.5;entryY=0;entryDx=0;entryDy=0;" parent="WIyWlLk6GJQsqaUBKTNV-1" source="NyG7NcDVjS7f3GW7vUbu-15" target="2FFM0tHUzr3lRl8sOh0C-0" edge="1">
          <mxGeometry relative="1" as="geometry" />
        </mxCell>
        <mxCell id="NyG7NcDVjS7f3GW7vUbu-15" value="if PktSeq[seqpos] ==&#39;ExID&#39;" style="rhombus;whiteSpace=wrap;html=1;" parent="WIyWlLk6GJQsqaUBKTNV-1" vertex="1">
          <mxGeometry x="166" y="644" width="115" height="115" as="geometry" />
        </mxCell>
        <mxCell id="NyG7NcDVjS7f3GW7vUbu-168" style="edgeStyle=orthogonalEdgeStyle;rounded=0;orthogonalLoop=1;jettySize=auto;html=1;exitX=1;exitY=0.5;exitDx=0;exitDy=0;entryX=0;entryY=0.5;entryDx=0;entryDy=0;" parent="WIyWlLk6GJQsqaUBKTNV-1" source="NyG7NcDVjS7f3GW7vUbu-16" target="NyG7NcDVjS7f3GW7vUbu-167" edge="1">
          <mxGeometry relative="1" as="geometry" />
        </mxCell>
        <mxCell id="NyG7NcDVjS7f3GW7vUbu-179" style="edgeStyle=orthogonalEdgeStyle;rounded=0;orthogonalLoop=1;jettySize=auto;html=1;exitX=0.5;exitY=1;exitDx=0;exitDy=0;entryX=0.5;entryY=0;entryDx=0;entryDy=0;" parent="WIyWlLk6GJQsqaUBKTNV-1" source="NyG7NcDVjS7f3GW7vUbu-16" target="NyG7NcDVjS7f3GW7vUbu-178" edge="1">
          <mxGeometry relative="1" as="geometry" />
        </mxCell>
        <mxCell id="NyG7NcDVjS7f3GW7vUbu-16" value="if Pktlist[id][Restricted&lt;span style=&quot;background-color: initial;&quot;&gt;] ==0&lt;/span&gt;" style="rhombus;whiteSpace=wrap;html=1;" parent="WIyWlLk6GJQsqaUBKTNV-1" vertex="1">
          <mxGeometry x="303" y="644" width="115" height="115" as="geometry" />
        </mxCell>
        <mxCell id="NyG7NcDVjS7f3GW7vUbu-17" value="PktSeq.append(GRQexid,SRQfqs, SRQrep,SRQen,EPT)" style="rounded=0;whiteSpace=wrap;html=1;" parent="WIyWlLk6GJQsqaUBKTNV-1" vertex="1">
          <mxGeometry x="530" y="682.5" width="188" height="37.5" as="geometry" />
        </mxCell>
        <mxCell id="NyG7NcDVjS7f3GW7vUbu-27" style="edgeStyle=orthogonalEdgeStyle;rounded=0;orthogonalLoop=1;jettySize=auto;html=1;exitX=0.5;exitY=1;exitDx=0;exitDy=0;entryX=0.5;entryY=0;entryDx=0;entryDy=0;" parent="WIyWlLk6GJQsqaUBKTNV-1" source="NyG7NcDVjS7f3GW7vUbu-18" target="NyG7NcDVjS7f3GW7vUbu-19" edge="1">
          <mxGeometry relative="1" as="geometry" />
        </mxCell>
        <mxCell id="NyG7NcDVjS7f3GW7vUbu-18" value="Filelist = GetCClinedata(), id = 0,Count = 0,packetsSeq={}" style="rounded=0;whiteSpace=wrap;html=1;" parent="WIyWlLk6GJQsqaUBKTNV-1" vertex="1">
          <mxGeometry x="86" y="-1039" width="200" height="30" as="geometry" />
        </mxCell>
        <mxCell id="NyG7NcDVjS7f3GW7vUbu-28" style="edgeStyle=orthogonalEdgeStyle;rounded=0;orthogonalLoop=1;jettySize=auto;html=1;exitX=0.5;exitY=1;exitDx=0;exitDy=0;entryX=0.5;entryY=0;entryDx=0;entryDy=0;" parent="WIyWlLk6GJQsqaUBKTNV-1" source="NyG7NcDVjS7f3GW7vUbu-19" target="NyG7NcDVjS7f3GW7vUbu-20" edge="1">
          <mxGeometry relative="1" as="geometry" />
        </mxCell>
        <mxCell id="NyG7NcDVjS7f3GW7vUbu-44" style="edgeStyle=orthogonalEdgeStyle;rounded=0;orthogonalLoop=1;jettySize=auto;html=1;entryX=0;entryY=0.5;entryDx=0;entryDy=0;" parent="WIyWlLk6GJQsqaUBKTNV-1" source="NyG7NcDVjS7f3GW7vUbu-19" target="NyG7NcDVjS7f3GW7vUbu-41" edge="1">
          <mxGeometry relative="1" as="geometry" />
        </mxCell>
        <mxCell id="NyG7NcDVjS7f3GW7vUbu-19" value="While id &amp;lt; len(Filelist&amp;nbsp;)" style="rhombus;whiteSpace=wrap;html=1;" parent="WIyWlLk6GJQsqaUBKTNV-1" vertex="1">
          <mxGeometry x="138.5" y="-997" width="95" height="95" as="geometry" />
        </mxCell>
        <mxCell id="NyG7NcDVjS7f3GW7vUbu-31" style="edgeStyle=orthogonalEdgeStyle;rounded=0;orthogonalLoop=1;jettySize=auto;html=1;entryX=0.5;entryY=0;entryDx=0;entryDy=0;" parent="WIyWlLk6GJQsqaUBKTNV-1" source="NyG7NcDVjS7f3GW7vUbu-20" target="NyG7NcDVjS7f3GW7vUbu-21" edge="1">
          <mxGeometry relative="1" as="geometry" />
        </mxCell>
        <mxCell id="NyG7NcDVjS7f3GW7vUbu-20" value="start =0,end = 0" style="rounded=0;whiteSpace=wrap;html=1;" parent="WIyWlLk6GJQsqaUBKTNV-1" vertex="1">
          <mxGeometry x="126" y="-889" width="120" height="20" as="geometry" />
        </mxCell>
        <mxCell id="NyG7NcDVjS7f3GW7vUbu-32" style="edgeStyle=orthogonalEdgeStyle;rounded=0;orthogonalLoop=1;jettySize=auto;html=1;exitX=0.5;exitY=1;exitDx=0;exitDy=0;entryX=0.5;entryY=0;entryDx=0;entryDy=0;" parent="WIyWlLk6GJQsqaUBKTNV-1" source="NyG7NcDVjS7f3GW7vUbu-21" target="NyG7NcDVjS7f3GW7vUbu-22" edge="1">
          <mxGeometry relative="1" as="geometry" />
        </mxCell>
        <mxCell id="NyG7NcDVjS7f3GW7vUbu-46" value="" style="edgeStyle=orthogonalEdgeStyle;rounded=0;orthogonalLoop=1;jettySize=auto;html=1;" parent="WIyWlLk6GJQsqaUBKTNV-1" source="NyG7NcDVjS7f3GW7vUbu-21" target="NyG7NcDVjS7f3GW7vUbu-45" edge="1">
          <mxGeometry relative="1" as="geometry" />
        </mxCell>
        <mxCell id="NyG7NcDVjS7f3GW7vUbu-21" value="if filelist[id]==&#39;PD&#39;" style="rhombus;whiteSpace=wrap;html=1;" parent="WIyWlLk6GJQsqaUBKTNV-1" vertex="1">
          <mxGeometry x="141" y="-855" width="90" height="90" as="geometry" />
        </mxCell>
        <mxCell id="NyG7NcDVjS7f3GW7vUbu-48" style="edgeStyle=orthogonalEdgeStyle;rounded=0;orthogonalLoop=1;jettySize=auto;html=1;exitX=0.5;exitY=1;exitDx=0;exitDy=0;entryX=0.5;entryY=0;entryDx=0;entryDy=0;" parent="WIyWlLk6GJQsqaUBKTNV-1" source="NyG7NcDVjS7f3GW7vUbu-22" target="NyG7NcDVjS7f3GW7vUbu-23" edge="1">
          <mxGeometry relative="1" as="geometry" />
        </mxCell>
        <mxCell id="NyG7NcDVjS7f3GW7vUbu-22" value="SD = get Shutdown from id to len(filelist)" style="shape=parallelogram;perimeter=parallelogramPerimeter;whiteSpace=wrap;html=1;fixedSize=1;" parent="WIyWlLk6GJQsqaUBKTNV-1" vertex="1">
          <mxGeometry x="86" y="-752" width="200" height="40" as="geometry" />
        </mxCell>
        <mxCell id="NyG7NcDVjS7f3GW7vUbu-74" value="" style="edgeStyle=orthogonalEdgeStyle;rounded=0;orthogonalLoop=1;jettySize=auto;html=1;" parent="WIyWlLk6GJQsqaUBKTNV-1" source="NyG7NcDVjS7f3GW7vUbu-23" target="NyG7NcDVjS7f3GW7vUbu-73" edge="1">
          <mxGeometry relative="1" as="geometry" />
        </mxCell>
        <mxCell id="NyG7NcDVjS7f3GW7vUbu-23" value="if SD" style="rhombus;whiteSpace=wrap;html=1;" parent="WIyWlLk6GJQsqaUBKTNV-1" vertex="1">
          <mxGeometry x="157.25" y="-699" width="57.5" height="57.5" as="geometry" />
        </mxCell>
        <mxCell id="NyG7NcDVjS7f3GW7vUbu-24" value="PD= get PD from id to SD" style="shape=parallelogram;perimeter=parallelogramPerimeter;whiteSpace=wrap;html=1;fixedSize=1;" parent="WIyWlLk6GJQsqaUBKTNV-1" vertex="1">
          <mxGeometry x="105" y="-629" width="150" height="37.5" as="geometry" />
        </mxCell>
        <mxCell id="NyG7NcDVjS7f3GW7vUbu-56" value="" style="edgeStyle=orthogonalEdgeStyle;rounded=0;orthogonalLoop=1;jettySize=auto;html=1;" parent="WIyWlLk6GJQsqaUBKTNV-1" source="NyG7NcDVjS7f3GW7vUbu-25" target="NyG7NcDVjS7f3GW7vUbu-55" edge="1">
          <mxGeometry relative="1" as="geometry" />
        </mxCell>
        <mxCell id="NyG7NcDVjS7f3GW7vUbu-25" value="if PD" style="rhombus;whiteSpace=wrap;html=1;" parent="WIyWlLk6GJQsqaUBKTNV-1" vertex="1">
          <mxGeometry x="278" y="-632.75" width="55" height="55" as="geometry" />
        </mxCell>
        <mxCell id="NyG7NcDVjS7f3GW7vUbu-60" style="edgeStyle=orthogonalEdgeStyle;rounded=0;orthogonalLoop=1;jettySize=auto;html=1;entryX=0;entryY=0.5;entryDx=0;entryDy=0;" parent="WIyWlLk6GJQsqaUBKTNV-1" source="NyG7NcDVjS7f3GW7vUbu-26" target="NyG7NcDVjS7f3GW7vUbu-58" edge="1">
          <mxGeometry relative="1" as="geometry" />
        </mxCell>
        <mxCell id="NyG7NcDVjS7f3GW7vUbu-65" value="" style="edgeStyle=orthogonalEdgeStyle;rounded=0;orthogonalLoop=1;jettySize=auto;html=1;" parent="WIyWlLk6GJQsqaUBKTNV-1" source="NyG7NcDVjS7f3GW7vUbu-26" target="NyG7NcDVjS7f3GW7vUbu-64" edge="1">
          <mxGeometry relative="1" as="geometry" />
        </mxCell>
        <mxCell id="NyG7NcDVjS7f3GW7vUbu-26" value="TS= get TS from id to SD" style="shape=parallelogram;perimeter=parallelogramPerimeter;whiteSpace=wrap;html=1;fixedSize=1;" parent="WIyWlLk6GJQsqaUBKTNV-1" vertex="1">
          <mxGeometry x="86" y="-559" width="160" height="40" as="geometry" />
        </mxCell>
        <mxCell id="NyG7NcDVjS7f3GW7vUbu-29" value="False" style="text;html=1;strokeColor=none;fillColor=none;align=center;verticalAlign=middle;whiteSpace=wrap;rounded=0;" parent="WIyWlLk6GJQsqaUBKTNV-1" vertex="1">
          <mxGeometry x="231.5" y="-967" width="40" height="11" as="geometry" />
        </mxCell>
        <mxCell id="NyG7NcDVjS7f3GW7vUbu-30" value="True" style="text;html=1;strokeColor=none;fillColor=none;align=center;verticalAlign=middle;whiteSpace=wrap;rounded=0;" parent="WIyWlLk6GJQsqaUBKTNV-1" vertex="1">
          <mxGeometry x="203.5" y="-902" width="30" height="13" as="geometry" />
        </mxCell>
        <mxCell id="NyG7NcDVjS7f3GW7vUbu-36" value="True" style="text;html=1;strokeColor=none;fillColor=none;align=center;verticalAlign=middle;whiteSpace=wrap;rounded=0;" parent="WIyWlLk6GJQsqaUBKTNV-1" vertex="1">
          <mxGeometry x="203.5" y="-765" width="30" height="13" as="geometry" />
        </mxCell>
        <mxCell id="NyG7NcDVjS7f3GW7vUbu-37" value="False" style="text;html=1;strokeColor=none;fillColor=none;align=center;verticalAlign=middle;whiteSpace=wrap;rounded=0;" parent="WIyWlLk6GJQsqaUBKTNV-1" vertex="1">
          <mxGeometry x="108" y="-832" width="40" height="16" as="geometry" />
        </mxCell>
        <mxCell id="NyG7NcDVjS7f3GW7vUbu-42" style="edgeStyle=orthogonalEdgeStyle;rounded=0;orthogonalLoop=1;jettySize=auto;html=1;exitX=0.5;exitY=1;exitDx=0;exitDy=0;entryX=0.5;entryY=0;entryDx=0;entryDy=0;" parent="WIyWlLk6GJQsqaUBKTNV-1" source="NyG7NcDVjS7f3GW7vUbu-39" target="NyG7NcDVjS7f3GW7vUbu-18" edge="1">
          <mxGeometry relative="1" as="geometry" />
        </mxCell>
        <mxCell id="NyG7NcDVjS7f3GW7vUbu-39" value="Start" style="ellipse;whiteSpace=wrap;html=1;" parent="WIyWlLk6GJQsqaUBKTNV-1" vertex="1">
          <mxGeometry x="160.62" y="-1084.9999999999998" width="50.76" height="33.84" as="geometry" />
        </mxCell>
        <mxCell id="NyG7NcDVjS7f3GW7vUbu-41" value="END" style="ellipse;whiteSpace=wrap;html=1;" parent="WIyWlLk6GJQsqaUBKTNV-1" vertex="1">
          <mxGeometry x="274" y="-966.4199999999998" width="50.76" height="33.84" as="geometry" />
        </mxCell>
        <mxCell id="NyG7NcDVjS7f3GW7vUbu-118" style="edgeStyle=orthogonalEdgeStyle;rounded=0;orthogonalLoop=1;jettySize=auto;html=1;exitX=0.5;exitY=0;exitDx=0;exitDy=0;" parent="WIyWlLk6GJQsqaUBKTNV-1" source="NyG7NcDVjS7f3GW7vUbu-45" edge="1">
          <mxGeometry relative="1" as="geometry">
            <mxPoint x="86" y="-949" as="targetPoint" />
          </mxGeometry>
        </mxCell>
        <mxCell id="NyG7NcDVjS7f3GW7vUbu-45" value="id+=1" style="whiteSpace=wrap;html=1;" parent="WIyWlLk6GJQsqaUBKTNV-1" vertex="1">
          <mxGeometry x="66" y="-820" width="40" height="20" as="geometry" />
        </mxCell>
        <mxCell id="NyG7NcDVjS7f3GW7vUbu-49" style="edgeStyle=orthogonalEdgeStyle;rounded=0;orthogonalLoop=1;jettySize=auto;html=1;exitX=0.5;exitY=1;exitDx=0;exitDy=0;entryX=0.544;entryY=-0.023;entryDx=0;entryDy=0;entryPerimeter=0;" parent="WIyWlLk6GJQsqaUBKTNV-1" source="NyG7NcDVjS7f3GW7vUbu-23" target="NyG7NcDVjS7f3GW7vUbu-24" edge="1">
          <mxGeometry relative="1" as="geometry" />
        </mxCell>
        <mxCell id="NyG7NcDVjS7f3GW7vUbu-51" value="True" style="text;html=1;strokeColor=none;fillColor=none;align=center;verticalAlign=middle;whiteSpace=wrap;rounded=0;" parent="WIyWlLk6GJQsqaUBKTNV-1" vertex="1">
          <mxGeometry x="201" y="-642" width="30" height="13" as="geometry" />
        </mxCell>
        <mxCell id="NyG7NcDVjS7f3GW7vUbu-54" style="edgeStyle=orthogonalEdgeStyle;rounded=0;orthogonalLoop=1;jettySize=auto;html=1;exitX=1;exitY=0.75;exitDx=0;exitDy=0;entryX=0.106;entryY=0.532;entryDx=0;entryDy=0;entryPerimeter=0;" parent="WIyWlLk6GJQsqaUBKTNV-1" source="NyG7NcDVjS7f3GW7vUbu-24" target="NyG7NcDVjS7f3GW7vUbu-25" edge="1">
          <mxGeometry relative="1" as="geometry" />
        </mxCell>
        <mxCell id="NyG7NcDVjS7f3GW7vUbu-55" value="id = PD" style="whiteSpace=wrap;html=1;" parent="WIyWlLk6GJQsqaUBKTNV-1" vertex="1">
          <mxGeometry x="366" y="-618.37" width="50" height="26.25" as="geometry" />
        </mxCell>
        <mxCell id="NyG7NcDVjS7f3GW7vUbu-57" value="" style="edgeStyle=orthogonalEdgeStyle;rounded=0;orthogonalLoop=1;jettySize=auto;html=1;" parent="WIyWlLk6GJQsqaUBKTNV-1" source="NyG7NcDVjS7f3GW7vUbu-58" target="NyG7NcDVjS7f3GW7vUbu-59" edge="1">
          <mxGeometry relative="1" as="geometry" />
        </mxCell>
        <mxCell id="NyG7NcDVjS7f3GW7vUbu-58" value="if TS" style="rhombus;whiteSpace=wrap;html=1;" parent="WIyWlLk6GJQsqaUBKTNV-1" vertex="1">
          <mxGeometry x="278" y="-566.5" width="55" height="55" as="geometry" />
        </mxCell>
        <mxCell id="NyG7NcDVjS7f3GW7vUbu-59" value="SD = TS" style="whiteSpace=wrap;html=1;" parent="WIyWlLk6GJQsqaUBKTNV-1" vertex="1">
          <mxGeometry x="366" y="-552.12" width="50" height="26.25" as="geometry" />
        </mxCell>
        <mxCell id="NyG7NcDVjS7f3GW7vUbu-61" style="edgeStyle=orthogonalEdgeStyle;rounded=0;orthogonalLoop=1;jettySize=auto;html=1;exitX=0.5;exitY=1;exitDx=0;exitDy=0;entryX=0.604;entryY=0.075;entryDx=0;entryDy=0;entryPerimeter=0;" parent="WIyWlLk6GJQsqaUBKTNV-1" source="NyG7NcDVjS7f3GW7vUbu-24" target="NyG7NcDVjS7f3GW7vUbu-26" edge="1">
          <mxGeometry relative="1" as="geometry" />
        </mxCell>
        <mxCell id="NyG7NcDVjS7f3GW7vUbu-63" style="edgeStyle=orthogonalEdgeStyle;rounded=0;orthogonalLoop=1;jettySize=auto;html=1;exitX=0.5;exitY=1;exitDx=0;exitDy=0;entryX=0.605;entryY=0.08;entryDx=0;entryDy=0;entryPerimeter=0;" parent="WIyWlLk6GJQsqaUBKTNV-1" source="NyG7NcDVjS7f3GW7vUbu-55" target="NyG7NcDVjS7f3GW7vUbu-26" edge="1">
          <mxGeometry relative="1" as="geometry">
            <Array as="points">
              <mxPoint x="391" y="-572" />
              <mxPoint x="183" y="-572" />
            </Array>
          </mxGeometry>
        </mxCell>
        <mxCell id="NyG7NcDVjS7f3GW7vUbu-104" value="" style="edgeStyle=orthogonalEdgeStyle;rounded=0;orthogonalLoop=1;jettySize=auto;html=1;" parent="WIyWlLk6GJQsqaUBKTNV-1" source="NyG7NcDVjS7f3GW7vUbu-64" target="NyG7NcDVjS7f3GW7vUbu-100" edge="1">
          <mxGeometry relative="1" as="geometry" />
        </mxCell>
        <mxCell id="NyG7NcDVjS7f3GW7vUbu-64" value="start = id,end=SD,id=end" style="whiteSpace=wrap;html=1;" parent="WIyWlLk6GJQsqaUBKTNV-1" vertex="1">
          <mxGeometry x="91" y="-499" width="150" height="30" as="geometry" />
        </mxCell>
        <mxCell id="NyG7NcDVjS7f3GW7vUbu-66" value="False" style="text;html=1;strokeColor=none;fillColor=none;align=center;verticalAlign=middle;whiteSpace=wrap;rounded=0;" parent="WIyWlLk6GJQsqaUBKTNV-1" vertex="1">
          <mxGeometry x="211.38" y="-689" width="40" height="11" as="geometry" />
        </mxCell>
        <mxCell id="NyG7NcDVjS7f3GW7vUbu-85" style="edgeStyle=orthogonalEdgeStyle;rounded=0;orthogonalLoop=1;jettySize=auto;html=1;exitX=1;exitY=0.5;exitDx=0;exitDy=0;entryX=0;entryY=0.5;entryDx=0;entryDy=0;" parent="WIyWlLk6GJQsqaUBKTNV-1" source="NyG7NcDVjS7f3GW7vUbu-73" target="NyG7NcDVjS7f3GW7vUbu-75" edge="1">
          <mxGeometry relative="1" as="geometry" />
        </mxCell>
        <mxCell id="NyG7NcDVjS7f3GW7vUbu-73" value="TS= get TS from id to len(Filelist)" style="shape=parallelogram;perimeter=parallelogramPerimeter;whiteSpace=wrap;html=1;fixedSize=1;" parent="WIyWlLk6GJQsqaUBKTNV-1" vertex="1">
          <mxGeometry x="266" y="-690.25" width="160" height="40" as="geometry" />
        </mxCell>
        <mxCell id="NyG7NcDVjS7f3GW7vUbu-87" style="edgeStyle=orthogonalEdgeStyle;rounded=0;orthogonalLoop=1;jettySize=auto;html=1;" parent="WIyWlLk6GJQsqaUBKTNV-1" source="NyG7NcDVjS7f3GW7vUbu-75" target="NyG7NcDVjS7f3GW7vUbu-76" edge="1">
          <mxGeometry relative="1" as="geometry" />
        </mxCell>
        <mxCell id="NyG7NcDVjS7f3GW7vUbu-94" style="edgeStyle=orthogonalEdgeStyle;rounded=0;orthogonalLoop=1;jettySize=auto;html=1;exitX=0.5;exitY=1;exitDx=0;exitDy=0;" parent="WIyWlLk6GJQsqaUBKTNV-1" source="NyG7NcDVjS7f3GW7vUbu-75" target="NyG7NcDVjS7f3GW7vUbu-93" edge="1">
          <mxGeometry relative="1" as="geometry" />
        </mxCell>
        <mxCell id="NyG7NcDVjS7f3GW7vUbu-75" value="if TS" style="rhombus;whiteSpace=wrap;html=1;" parent="WIyWlLk6GJQsqaUBKTNV-1" vertex="1">
          <mxGeometry x="431.5" y="-698" width="55" height="55" as="geometry" />
        </mxCell>
        <mxCell id="NyG7NcDVjS7f3GW7vUbu-88" style="edgeStyle=orthogonalEdgeStyle;rounded=0;orthogonalLoop=1;jettySize=auto;html=1;exitX=1;exitY=0.5;exitDx=0;exitDy=0;entryX=0;entryY=0.5;entryDx=0;entryDy=0;" parent="WIyWlLk6GJQsqaUBKTNV-1" source="NyG7NcDVjS7f3GW7vUbu-76" target="NyG7NcDVjS7f3GW7vUbu-77" edge="1">
          <mxGeometry relative="1" as="geometry" />
        </mxCell>
        <mxCell id="NyG7NcDVjS7f3GW7vUbu-76" value="PD= get PD from id to TS" style="shape=parallelogram;perimeter=parallelogramPerimeter;whiteSpace=wrap;html=1;fixedSize=1;" parent="WIyWlLk6GJQsqaUBKTNV-1" vertex="1">
          <mxGeometry x="497" y="-689.25" width="119" height="37.5" as="geometry" />
        </mxCell>
        <mxCell id="NyG7NcDVjS7f3GW7vUbu-91" style="edgeStyle=orthogonalEdgeStyle;rounded=0;orthogonalLoop=1;jettySize=auto;html=1;exitX=1;exitY=0.5;exitDx=0;exitDy=0;entryX=0;entryY=0.5;entryDx=0;entryDy=0;" parent="WIyWlLk6GJQsqaUBKTNV-1" source="NyG7NcDVjS7f3GW7vUbu-77" target="NyG7NcDVjS7f3GW7vUbu-90" edge="1">
          <mxGeometry relative="1" as="geometry" />
        </mxCell>
        <mxCell id="NyG7NcDVjS7f3GW7vUbu-122" style="edgeStyle=orthogonalEdgeStyle;rounded=0;orthogonalLoop=1;jettySize=auto;html=1;exitX=0.5;exitY=1;exitDx=0;exitDy=0;entryX=0.25;entryY=0;entryDx=0;entryDy=0;" parent="WIyWlLk6GJQsqaUBKTNV-1" source="NyG7NcDVjS7f3GW7vUbu-77" target="NyG7NcDVjS7f3GW7vUbu-96" edge="1">
          <mxGeometry relative="1" as="geometry" />
        </mxCell>
        <mxCell id="NyG7NcDVjS7f3GW7vUbu-77" value="if PD" style="rhombus;whiteSpace=wrap;html=1;" parent="WIyWlLk6GJQsqaUBKTNV-1" vertex="1">
          <mxGeometry x="625" y="-698" width="55" height="55" as="geometry" />
        </mxCell>
        <mxCell id="NyG7NcDVjS7f3GW7vUbu-123" style="edgeStyle=orthogonalEdgeStyle;rounded=0;orthogonalLoop=1;jettySize=auto;html=1;exitX=0.5;exitY=1;exitDx=0;exitDy=0;entryX=0.25;entryY=0;entryDx=0;entryDy=0;" parent="WIyWlLk6GJQsqaUBKTNV-1" source="NyG7NcDVjS7f3GW7vUbu-90" target="NyG7NcDVjS7f3GW7vUbu-96" edge="1">
          <mxGeometry relative="1" as="geometry" />
        </mxCell>
        <mxCell id="NyG7NcDVjS7f3GW7vUbu-90" value="id = PD" style="whiteSpace=wrap;html=1;" parent="WIyWlLk6GJQsqaUBKTNV-1" vertex="1">
          <mxGeometry x="693" y="-683.38" width="50" height="26.25" as="geometry" />
        </mxCell>
        <mxCell id="NyG7NcDVjS7f3GW7vUbu-92" value="True" style="text;html=1;strokeColor=none;fillColor=none;align=center;verticalAlign=middle;whiteSpace=wrap;rounded=0;" parent="WIyWlLk6GJQsqaUBKTNV-1" vertex="1">
          <mxGeometry x="476" y="-696.38" width="30" height="13" as="geometry" />
        </mxCell>
        <mxCell id="NyG7NcDVjS7f3GW7vUbu-119" style="edgeStyle=orthogonalEdgeStyle;rounded=0;orthogonalLoop=1;jettySize=auto;html=1;exitX=0.5;exitY=1;exitDx=0;exitDy=0;entryX=1;entryY=0.5;entryDx=0;entryDy=0;" parent="WIyWlLk6GJQsqaUBKTNV-1" source="NyG7NcDVjS7f3GW7vUbu-93" target="NyG7NcDVjS7f3GW7vUbu-100" edge="1">
          <mxGeometry relative="1" as="geometry" />
        </mxCell>
        <mxCell id="NyG7NcDVjS7f3GW7vUbu-93" value="start = id,end=len(Filelist),id=end" style="whiteSpace=wrap;html=1;" parent="WIyWlLk6GJQsqaUBKTNV-1" vertex="1">
          <mxGeometry x="365" y="-499" width="190" height="30.76" as="geometry" />
        </mxCell>
        <mxCell id="NyG7NcDVjS7f3GW7vUbu-95" value="False" style="text;html=1;strokeColor=none;fillColor=none;align=center;verticalAlign=middle;whiteSpace=wrap;rounded=0;" parent="WIyWlLk6GJQsqaUBKTNV-1" vertex="1">
          <mxGeometry x="466" y="-642" width="40" height="11" as="geometry" />
        </mxCell>
        <mxCell id="NyG7NcDVjS7f3GW7vUbu-120" style="edgeStyle=orthogonalEdgeStyle;rounded=0;orthogonalLoop=1;jettySize=auto;html=1;exitX=0.5;exitY=1;exitDx=0;exitDy=0;entryX=1;entryY=0.5;entryDx=0;entryDy=0;" parent="WIyWlLk6GJQsqaUBKTNV-1" source="NyG7NcDVjS7f3GW7vUbu-96" target="NyG7NcDVjS7f3GW7vUbu-100" edge="1">
          <mxGeometry relative="1" as="geometry" />
        </mxCell>
        <mxCell id="NyG7NcDVjS7f3GW7vUbu-96" value="start = id,end=TS,id=end" style="whiteSpace=wrap;html=1;" parent="WIyWlLk6GJQsqaUBKTNV-1" vertex="1">
          <mxGeometry x="613" y="-499.76" width="157" height="30.76" as="geometry" />
        </mxCell>
        <mxCell id="NyG7NcDVjS7f3GW7vUbu-105" style="edgeStyle=orthogonalEdgeStyle;rounded=0;orthogonalLoop=1;jettySize=auto;html=1;exitX=0.5;exitY=1;exitDx=0;exitDy=0;entryX=0.5;entryY=0;entryDx=0;entryDy=0;" parent="WIyWlLk6GJQsqaUBKTNV-1" source="NyG7NcDVjS7f3GW7vUbu-100" target="NyG7NcDVjS7f3GW7vUbu-102" edge="1">
          <mxGeometry relative="1" as="geometry" />
        </mxCell>
        <mxCell id="NyG7NcDVjS7f3GW7vUbu-113" style="edgeStyle=orthogonalEdgeStyle;rounded=0;orthogonalLoop=1;jettySize=auto;html=1;" parent="WIyWlLk6GJQsqaUBKTNV-1" source="NyG7NcDVjS7f3GW7vUbu-100" edge="1">
          <mxGeometry relative="1" as="geometry">
            <mxPoint x="46" y="-399" as="targetPoint" />
          </mxGeometry>
        </mxCell>
        <mxCell id="NyG7NcDVjS7f3GW7vUbu-100" value="if end-start &amp;gt;3" style="rhombus;whiteSpace=wrap;html=1;" parent="WIyWlLk6GJQsqaUBKTNV-1" vertex="1">
          <mxGeometry x="127" y="-439" width="78" height="80" as="geometry" />
        </mxCell>
        <mxCell id="NyG7NcDVjS7f3GW7vUbu-106" style="edgeStyle=orthogonalEdgeStyle;rounded=0;orthogonalLoop=1;jettySize=auto;html=1;exitX=0.5;exitY=1;exitDx=0;exitDy=0;entryX=0.5;entryY=0;entryDx=0;entryDy=0;" parent="WIyWlLk6GJQsqaUBKTNV-1" source="NyG7NcDVjS7f3GW7vUbu-102" target="NyG7NcDVjS7f3GW7vUbu-103" edge="1">
          <mxGeometry relative="1" as="geometry" />
        </mxCell>
        <mxCell id="NyG7NcDVjS7f3GW7vUbu-102" value="index = FindFlow()" style="shape=process;whiteSpace=wrap;html=1;backgroundOutline=1;" parent="WIyWlLk6GJQsqaUBKTNV-1" vertex="1">
          <mxGeometry x="81" y="-339" width="170" height="20" as="geometry" />
        </mxCell>
        <mxCell id="NyG7NcDVjS7f3GW7vUbu-110" style="edgeStyle=orthogonalEdgeStyle;rounded=0;orthogonalLoop=1;jettySize=auto;html=1;entryX=0;entryY=0.5;entryDx=0;entryDy=0;" parent="WIyWlLk6GJQsqaUBKTNV-1" source="NyG7NcDVjS7f3GW7vUbu-103" target="NyG7NcDVjS7f3GW7vUbu-19" edge="1">
          <mxGeometry relative="1" as="geometry">
            <Array as="points">
              <mxPoint x="46" y="-281" />
              <mxPoint x="46" y="-950" />
            </Array>
          </mxGeometry>
        </mxCell>
        <mxCell id="NyG7NcDVjS7f3GW7vUbu-103" value="count+=1, packetseq[count]={&quot;Limit&#39;:[start,end],&quot;flow&quot;:index}" style="rounded=0;whiteSpace=wrap;html=1;" parent="WIyWlLk6GJQsqaUBKTNV-1" vertex="1">
          <mxGeometry x="80.5" y="-301" width="171" height="40" as="geometry" />
        </mxCell>
        <mxCell id="NyG7NcDVjS7f3GW7vUbu-111" value="True" style="text;html=1;strokeColor=none;fillColor=none;align=center;verticalAlign=middle;whiteSpace=wrap;rounded=0;" parent="WIyWlLk6GJQsqaUBKTNV-1" vertex="1">
          <mxGeometry x="175" y="-352" width="30" height="13" as="geometry" />
        </mxCell>
        <mxCell id="NyG7NcDVjS7f3GW7vUbu-114" value="False" style="text;html=1;strokeColor=none;fillColor=none;align=center;verticalAlign=middle;whiteSpace=wrap;rounded=0;" parent="WIyWlLk6GJQsqaUBKTNV-1" vertex="1">
          <mxGeometry x="86" y="-414" width="40" height="11" as="geometry" />
        </mxCell>
        <mxCell id="NyG7NcDVjS7f3GW7vUbu-121" value="True" style="text;html=1;strokeColor=none;fillColor=none;align=center;verticalAlign=middle;whiteSpace=wrap;rounded=0;" parent="WIyWlLk6GJQsqaUBKTNV-1" vertex="1">
          <mxGeometry x="663" y="-696.38" width="30" height="13" as="geometry" />
        </mxCell>
        <mxCell id="NyG7NcDVjS7f3GW7vUbu-124" value="&lt;b&gt;&lt;font style=&quot;font-size: 20px;&quot;&gt;SegricatePackets&lt;/font&gt;&lt;/b&gt;" style="text;html=1;strokeColor=none;fillColor=none;align=center;verticalAlign=middle;whiteSpace=wrap;rounded=0;" parent="WIyWlLk6GJQsqaUBKTNV-1" vertex="1">
          <mxGeometry x="39.75" y="-1150" width="175" height="30" as="geometry" />
        </mxCell>
        <mxCell id="NyG7NcDVjS7f3GW7vUbu-127" value="&lt;font style=&quot;font-size: 15px;&quot;&gt;: To Identify set of packets sequences i.e. 128Khz and 360 Khz packet sequences.&lt;/font&gt;" style="text;html=1;strokeColor=none;fillColor=none;align=center;verticalAlign=middle;whiteSpace=wrap;rounded=0;" parent="WIyWlLk6GJQsqaUBKTNV-1" vertex="1">
          <mxGeometry x="241" y="-1150" width="579" height="30" as="geometry" />
        </mxCell>
        <mxCell id="NyG7NcDVjS7f3GW7vUbu-129" value="&lt;font style=&quot;font-size: 15px;&quot;&gt;Inputs : GetCClinePacketsData() API&lt;/font&gt;" style="text;html=1;strokeColor=none;fillColor=none;align=center;verticalAlign=middle;whiteSpace=wrap;rounded=0;" parent="WIyWlLk6GJQsqaUBKTNV-1" vertex="1">
          <mxGeometry x="530" y="-1110" width="270" height="30" as="geometry" />
        </mxCell>
        <mxCell id="NyG7NcDVjS7f3GW7vUbu-130" value="&lt;font style=&quot;font-size: 15px;&quot;&gt;Output: eg.&amp;nbsp;{&#39;Limit&#39;: [31, 49], &#39;Flow&#39;: 1}&lt;/font&gt;" style="text;html=1;strokeColor=none;fillColor=none;align=center;verticalAlign=middle;whiteSpace=wrap;rounded=0;" parent="WIyWlLk6GJQsqaUBKTNV-1" vertex="1">
          <mxGeometry x="530" y="-1074" width="270" height="30" as="geometry" />
        </mxCell>
        <mxCell id="NyG7NcDVjS7f3GW7vUbu-166" style="edgeStyle=orthogonalEdgeStyle;rounded=0;orthogonalLoop=1;jettySize=auto;html=1;entryX=0.5;entryY=0;entryDx=0;entryDy=0;" parent="WIyWlLk6GJQsqaUBKTNV-1" source="NyG7NcDVjS7f3GW7vUbu-141" target="NyG7NcDVjS7f3GW7vUbu-15" edge="1">
          <mxGeometry relative="1" as="geometry" />
        </mxCell>
        <mxCell id="NyG7NcDVjS7f3GW7vUbu-141" value="PktSeq.append(CNF&lt;span style=&quot;background-color: initial;&quot;&gt;)&lt;/span&gt;" style="rounded=0;whiteSpace=wrap;html=1;" parent="WIyWlLk6GJQsqaUBKTNV-1" vertex="1">
          <mxGeometry x="292.25" y="609" width="128.5" height="30" as="geometry" />
        </mxCell>
        <mxCell id="NyG7NcDVjS7f3GW7vUbu-142" value="True" style="text;html=1;strokeColor=none;fillColor=none;align=center;verticalAlign=middle;whiteSpace=wrap;rounded=0;" parent="WIyWlLk6GJQsqaUBKTNV-1" vertex="1">
          <mxGeometry x="233.5" y="288" width="30" height="13" as="geometry" />
        </mxCell>
        <mxCell id="NyG7NcDVjS7f3GW7vUbu-143" value="False" style="text;html=1;strokeColor=none;fillColor=none;align=center;verticalAlign=middle;whiteSpace=wrap;rounded=0;" parent="WIyWlLk6GJQsqaUBKTNV-1" vertex="1">
          <mxGeometry x="270" y="220.28999999999996" width="40" height="11" as="geometry" />
        </mxCell>
        <mxCell id="NyG7NcDVjS7f3GW7vUbu-144" value="END" style="ellipse;whiteSpace=wrap;html=1;" parent="WIyWlLk6GJQsqaUBKTNV-1" vertex="1">
          <mxGeometry x="312.5" y="220.87000000000012" width="50.76" height="33.84" as="geometry" />
        </mxCell>
        <mxCell id="NyG7NcDVjS7f3GW7vUbu-149" value="False" style="text;html=1;strokeColor=none;fillColor=none;align=center;verticalAlign=middle;whiteSpace=wrap;rounded=0;" parent="WIyWlLk6GJQsqaUBKTNV-1" vertex="1">
          <mxGeometry x="139" y="337.49999999999994" width="40" height="11" as="geometry" />
        </mxCell>
        <mxCell id="NyG7NcDVjS7f3GW7vUbu-150" style="edgeStyle=orthogonalEdgeStyle;rounded=0;orthogonalLoop=1;jettySize=auto;html=1;exitX=0.5;exitY=1;exitDx=0;exitDy=0;entryX=0.468;entryY=-0.008;entryDx=0;entryDy=0;entryPerimeter=0;" parent="WIyWlLk6GJQsqaUBKTNV-1" edge="1">
          <mxGeometry relative="1" as="geometry">
            <mxPoint x="224.5" y="416" as="sourcePoint" />
            <mxPoint x="225.74" y="431.75999999999976" as="targetPoint" />
          </mxGeometry>
        </mxCell>
        <mxCell id="NyG7NcDVjS7f3GW7vUbu-151" value="True" style="text;html=1;strokeColor=none;fillColor=none;align=center;verticalAlign=middle;whiteSpace=wrap;rounded=0;" parent="WIyWlLk6GJQsqaUBKTNV-1" vertex="1">
          <mxGeometry x="391.75" y="520" width="30" height="13" as="geometry" />
        </mxCell>
        <mxCell id="NyG7NcDVjS7f3GW7vUbu-152" value="False" style="text;html=1;strokeColor=none;fillColor=none;align=center;verticalAlign=middle;whiteSpace=wrap;rounded=0;" parent="WIyWlLk6GJQsqaUBKTNV-1" vertex="1">
          <mxGeometry x="476" y="640.5" width="40" height="11" as="geometry" />
        </mxCell>
        <mxCell id="NyG7NcDVjS7f3GW7vUbu-159" value="True" style="text;html=1;strokeColor=none;fillColor=none;align=center;verticalAlign=middle;whiteSpace=wrap;rounded=0;" parent="WIyWlLk6GJQsqaUBKTNV-1" vertex="1">
          <mxGeometry x="233.5" y="416" width="30" height="13" as="geometry" />
        </mxCell>
        <mxCell id="NyG7NcDVjS7f3GW7vUbu-161" style="edgeStyle=orthogonalEdgeStyle;rounded=0;orthogonalLoop=1;jettySize=auto;html=1;exitX=0.5;exitY=1;exitDx=0;exitDy=0;entryX=0.413;entryY=0.006;entryDx=0;entryDy=0;entryPerimeter=0;" parent="WIyWlLk6GJQsqaUBKTNV-1" source="NyG7NcDVjS7f3GW7vUbu-13" target="NyG7NcDVjS7f3GW7vUbu-141" edge="1">
          <mxGeometry relative="1" as="geometry" />
        </mxCell>
        <mxCell id="NyG7NcDVjS7f3GW7vUbu-162" value="True" style="text;html=1;strokeColor=none;fillColor=none;align=center;verticalAlign=middle;whiteSpace=wrap;rounded=0;" parent="WIyWlLk6GJQsqaUBKTNV-1" vertex="1">
          <mxGeometry x="270" y="514" width="30" height="13" as="geometry" />
        </mxCell>
        <mxCell id="NyG7NcDVjS7f3GW7vUbu-163" style="edgeStyle=orthogonalEdgeStyle;rounded=0;orthogonalLoop=1;jettySize=auto;html=1;exitX=1;exitY=0.5;exitDx=0;exitDy=0;entryX=0.042;entryY=0.495;entryDx=0;entryDy=0;entryPerimeter=0;" parent="WIyWlLk6GJQsqaUBKTNV-1" source="NyG7NcDVjS7f3GW7vUbu-10" target="NyG7NcDVjS7f3GW7vUbu-13" edge="1">
          <mxGeometry relative="1" as="geometry" />
        </mxCell>
        <mxCell id="NyG7NcDVjS7f3GW7vUbu-169" style="edgeStyle=orthogonalEdgeStyle;rounded=0;orthogonalLoop=1;jettySize=auto;html=1;exitX=1;exitY=0.5;exitDx=0;exitDy=0;entryX=0;entryY=0.5;entryDx=0;entryDy=0;" parent="WIyWlLk6GJQsqaUBKTNV-1" source="NyG7NcDVjS7f3GW7vUbu-167" target="NyG7NcDVjS7f3GW7vUbu-17" edge="1">
          <mxGeometry relative="1" as="geometry" />
        </mxCell>
        <mxCell id="NyG7NcDVjS7f3GW7vUbu-180" style="edgeStyle=orthogonalEdgeStyle;rounded=0;orthogonalLoop=1;jettySize=auto;html=1;exitX=0.5;exitY=0;exitDx=0;exitDy=0;entryX=0;entryY=0.75;entryDx=0;entryDy=0;" parent="WIyWlLk6GJQsqaUBKTNV-1" source="NyG7NcDVjS7f3GW7vUbu-167" target="NyG7NcDVjS7f3GW7vUbu-173" edge="1">
          <mxGeometry relative="1" as="geometry" />
        </mxCell>
        <mxCell id="NyG7NcDVjS7f3GW7vUbu-167" value="if flow = 128" style="rhombus;whiteSpace=wrap;html=1;" parent="WIyWlLk6GJQsqaUBKTNV-1" vertex="1">
          <mxGeometry x="431.5" y="658.5" width="86" height="86" as="geometry" />
        </mxCell>
        <mxCell id="NyG7NcDVjS7f3GW7vUbu-170" value="True" style="text;html=1;strokeColor=none;fillColor=none;align=center;verticalAlign=middle;whiteSpace=wrap;rounded=0;" parent="WIyWlLk6GJQsqaUBKTNV-1" vertex="1">
          <mxGeometry x="500" y="671.5" width="30" height="13" as="geometry" />
        </mxCell>
        <mxCell id="NyG7NcDVjS7f3GW7vUbu-172" value="False" style="text;html=1;strokeColor=none;fillColor=none;align=center;verticalAlign=middle;whiteSpace=wrap;rounded=0;" parent="WIyWlLk6GJQsqaUBKTNV-1" vertex="1">
          <mxGeometry x="354.75" y="594" width="40" height="11" as="geometry" />
        </mxCell>
        <mxCell id="NyG7NcDVjS7f3GW7vUbu-173" value="PktSeq.append(GRQexid,GRestK, EPRcap,GRQexcap,GRQplap, PLAP,SRQlp,SRQen)" style="rounded=0;whiteSpace=wrap;html=1;" parent="WIyWlLk6GJQsqaUBKTNV-1" vertex="1">
          <mxGeometry x="530" y="598.5" width="188" height="51" as="geometry" />
        </mxCell>
        <mxCell id="NyG7NcDVjS7f3GW7vUbu-176" value="True" style="text;html=1;strokeColor=none;fillColor=none;align=center;verticalAlign=middle;whiteSpace=wrap;rounded=0;" parent="WIyWlLk6GJQsqaUBKTNV-1" vertex="1">
          <mxGeometry x="274" y="682.5" width="30" height="13" as="geometry" />
        </mxCell>
        <mxCell id="NyG7NcDVjS7f3GW7vUbu-177" value="True" style="text;html=1;strokeColor=none;fillColor=none;align=center;verticalAlign=middle;whiteSpace=wrap;rounded=0;" parent="WIyWlLk6GJQsqaUBKTNV-1" vertex="1">
          <mxGeometry x="414" y="670" width="30" height="13" as="geometry" />
        </mxCell>
        <mxCell id="NyG7NcDVjS7f3GW7vUbu-178" value="PktSeq.append(CE,RP8)" style="rounded=0;whiteSpace=wrap;html=1;" parent="WIyWlLk6GJQsqaUBKTNV-1" vertex="1">
          <mxGeometry x="288.5" y="779" width="144" height="20" as="geometry" />
        </mxCell>
        <mxCell id="NyG7NcDVjS7f3GW7vUbu-182" value="seqpos+=1, id+=1" style="whiteSpace=wrap;html=1;" parent="WIyWlLk6GJQsqaUBKTNV-1" vertex="1">
          <mxGeometry x="159.26" y="1110" width="165.5" height="29.5" as="geometry" />
        </mxCell>
        <mxCell id="NyG7NcDVjS7f3GW7vUbu-191" value="PktSeq.append(XCE,PLA)" style="rounded=0;whiteSpace=wrap;html=1;" parent="WIyWlLk6GJQsqaUBKTNV-1" vertex="1">
          <mxGeometry x="530" y="779" width="144" height="20" as="geometry" />
        </mxCell>
        <mxCell id="NyG7NcDVjS7f3GW7vUbu-198" style="edgeStyle=orthogonalEdgeStyle;rounded=0;orthogonalLoop=1;jettySize=auto;html=1;exitX=0;exitY=0.5;exitDx=0;exitDy=0;entryX=0.5;entryY=0;entryDx=0;entryDy=0;" parent="WIyWlLk6GJQsqaUBKTNV-1" target="2FFM0tHUzr3lRl8sOh0C-0" edge="1">
          <mxGeometry relative="1" as="geometry">
            <mxPoint x="286.5" y="792" as="sourcePoint" />
            <mxPoint x="223.13" y="839.8139999999999" as="targetPoint" />
          </mxGeometry>
        </mxCell>
        <mxCell id="NyG7NcDVjS7f3GW7vUbu-199" style="edgeStyle=orthogonalEdgeStyle;rounded=0;orthogonalLoop=1;jettySize=auto;html=1;exitX=0.5;exitY=1;exitDx=0;exitDy=0;entryX=0.65;entryY=0.081;entryDx=0;entryDy=0;entryPerimeter=0;" parent="WIyWlLk6GJQsqaUBKTNV-1" source="NyG7NcDVjS7f3GW7vUbu-17" target="NyG7NcDVjS7f3GW7vUbu-191" edge="1">
          <mxGeometry relative="1" as="geometry" />
        </mxCell>
        <mxCell id="NyG7NcDVjS7f3GW7vUbu-203" value="False" style="text;html=1;strokeColor=none;fillColor=none;align=center;verticalAlign=middle;whiteSpace=wrap;rounded=0;" parent="WIyWlLk6GJQsqaUBKTNV-1" vertex="1">
          <mxGeometry x="226" y="605" width="40" height="11" as="geometry" />
        </mxCell>
        <mxCell id="NyG7NcDVjS7f3GW7vUbu-209" value="&lt;b&gt;&lt;font style=&quot;font-size: 15px;&quot;&gt;1.Standard Packet Flow&lt;/font&gt;&lt;/b&gt;" style="text;html=1;strokeColor=none;fillColor=none;align=center;verticalAlign=middle;whiteSpace=wrap;rounded=0;" parent="WIyWlLk6GJQsqaUBKTNV-1" vertex="1">
          <mxGeometry x="49.75" y="30" width="200.25" height="20" as="geometry" />
        </mxCell>
        <mxCell id="gpfT6IePD0euz1-vS1WZ-0" style="edgeStyle=orthogonalEdgeStyle;rounded=0;orthogonalLoop=1;jettySize=auto;html=1;exitX=1;exitY=0.5;exitDx=0;exitDy=0;entryX=0;entryY=0.5;entryDx=0;entryDy=0;" edge="1" parent="WIyWlLk6GJQsqaUBKTNV-1" source="2FFM0tHUzr3lRl8sOh0C-0" target="2FFM0tHUzr3lRl8sOh0C-2">
          <mxGeometry relative="1" as="geometry" />
        </mxCell>
        <mxCell id="2FFM0tHUzr3lRl8sOh0C-0" value="if Pktlist[id][phase]==&#39;PT&#39; and PktSeq[seqpos][phase]==&#39;PT&#39;" style="rhombus;whiteSpace=wrap;html=1;" parent="WIyWlLk6GJQsqaUBKTNV-1" vertex="1">
          <mxGeometry x="166" y="850" width="115" height="115" as="geometry" />
        </mxCell>
        <mxCell id="2FFM0tHUzr3lRl8sOh0C-2" value="While id &amp;lt; len(Pktlist)" style="rhombus;whiteSpace=wrap;html=1;" parent="WIyWlLk6GJQsqaUBKTNV-1" vertex="1">
          <mxGeometry x="301.75" y="861" width="93" height="93" as="geometry" />
        </mxCell>
        <mxCell id="ECsvbG01KnJw8d9EX0hN-0" value="if Pktlist[id" style="rhombus;whiteSpace=wrap;html=1;" parent="WIyWlLk6GJQsqaUBKTNV-1" vertex="1">
          <mxGeometry x="418" y="861" width="93" height="93" as="geometry" />
        </mxCell>
      </root>
    </mxGraphModel>
  </diagram>
</mxfile>
